# xmcd
#
# Track frame offsets: 
#        150
#        16011
#        22155
#        38016
#        53877
#        69738
#
# Disc length: 1135 seconds
#
# Revision: 0
# Processed by: cddbd v1.5.2PL0 Copyright (c) Steve Scherf et al.
# Submitted via: ExactAudioCopyFreeDBPlugin 1.0
#
DISCID=47046d06
DTITLE=Josh Wilson - Fall Apart (Christian World Soundtraks) (2011)
DYEAR=2011
DGENRE=Performance Trax
TTITLE0=Fall Apart - Demonstration
TTITLE1=Promo
TTITLE2=Fall Apart - Performance Track - Original Key with BGV's [F]
TTITLE3=Fall Apart - Performance Track - High Key with BGV's [Ab]
TTITLE4=Fall Apart - Performance Track - Lower Key with BGV's [D]
TTITLE5=Fall Apart - Performance Track - Original Key without BGV's [F
TTITLE5=]
EXTD=
EXTT0=
EXTT1=
EXTT2=
EXTT3=
EXTT4=
EXTT5=
PLAYORDER=
